<svg xmlns="http://www.w3.org/2000/svg" width="17" height="20" viewBox="0 0 17 20"><g fill="none" transform="translate(.1 .943)"><path fill="#2A6BAE" d="M7.89821347,15.187 L14.4322135,15.187 C15.9242135,15.187 15.9392135,13.602 15.7872135,12.819 C15.7042135,12.293 14.8102135,12.297 14.7122135,12.819 L14.7122135,13.429 C14.7111171,13.7091053 14.4843188,13.9359037 14.2042135,13.937 L1.67721347,13.937 C1.39749608,13.9359079 1.17085674,13.7097147 1.16921347,13.43 L1.16921347,12.819 C1.07121347,12.297 0.177213465,12.293 0.094213465,12.819 C-0.057786535,13.602 -0.042786535,15.188 1.44921347,15.188 L7.89821347,15.188 L7.89821347,15.187 Z M3.28021347,8.8817842e-16 L13.3542135,8.8817842e-16 C14.0622135,8.8817842e-16 14.6412135,0.613 14.6412135,1.362 L14.6412135,2.012 C14.6141453,2.33498143 14.3450229,2.58389082 14.0209143,2.5857102 C13.6968057,2.58752957 13.4249059,2.3416572 13.3942135,2.019 L13.3942135,1.663 C13.3931152,1.43662968 13.2095858,1.25354678 12.9832135,1.253 L2.88721347,1.253 C2.66123157,1.25409436 2.47830783,1.4370181 2.47721347,1.663 L2.47721347,2.012 C2.47721347,2.927 1.28821347,2.92 1.28821347,2.032 L1.28821347,1.362 C1.28821347,0.612 1.86821347,8.8817842e-16 2.57521347,8.8817842e-16 L3.27921347,8.8817842e-16 L3.28021347,8.8817842e-16 Z"/><path fill="#424041" d="M14.3872135 7.481C15.0842135 7.809 15.5662135 8.487 15.5662135 9.265 15.5662135 10.362 14.6082135 11.259 13.4382135 11.259L10.1572135 11.259C9.85021347 11.259 9.59921347 11.024 9.59921347 10.736L9.59921347 4.494C9.60031038 4.19180348 9.84501694 3.94709691 10.1472135 3.946L12.8802135 3.946C14.0302135 3.946 14.9712135 4.886 14.9712135 6.036 14.9712135 6.596 14.7482135 7.105 14.3872135 7.481M11.9372135 6.972L12.9792135 6.972 12.9792135 6.961C13.4624681 6.88571976 13.8191533 6.47008184 13.8202135 5.981 13.8180213 5.43514872 13.3760647 4.9931922 12.8302135 4.991L10.7302135 4.991 10.7302135 10.171 13.3912135 10.171C13.9542135 10.171 14.4142135 9.711 14.4142135 9.148 14.4142135 8.585 13.9542135 8.125 13.3912135 8.125L12.9782135 8.125 12.9782135 8.123 11.9372135 8.123C11.6201053 8.12190273 11.3633107 7.86510812 11.3622135 7.548 11.3622135 7.231 11.6202135 6.972 11.9372135 6.972M3.69521347 17.104C3.69521347 17.0067979 3.77401135 16.928 3.87121347 16.928 3.96841558 16.928 4.04721601 17.0067979 4.04721601 17.104L4.04721601 18.056C4.04774634 18.2656839 3.96468556 18.4669333 3.81641615 18.6152027 3.66814674 18.7634721 3.4668974 18.8465329 3.25721347 18.8460025 3.04752953 18.8465329 2.84628019 18.7634721 2.69801078 18.6152027 2.54974137 18.4669333 2.46668059 18.2656839 2.46721092 18.056L2.46721092 17.104C2.47414778 17.012202 2.55065393 16.9412571 2.64271347 16.9412571 2.73477301 16.9412571 2.81127915 17.012202 2.81821347 17.104L2.81821347 18.056C2.81794785 18.172338 2.86397686 18.2840021 2.9461466 18.3663594 3.02831634 18.4487168 3.13987517 18.4950003 3.25621347 18.495L3.25721347 18.495C3.37721347 18.495 3.48721347 18.445 3.56721347 18.365 3.64721347 18.285 3.69621347 18.176 3.69621347 18.055L3.69621347 17.104 3.69521347 17.104zM5.35821347 18.494C5.45541558 18.494 5.53421347 18.5727979 5.53421347 18.67 5.53421347 18.7672021 5.45541558 18.846 5.35821347 18.846L4.87221347 18.846C4.69699718 18.846 4.52897188 18.7763274 4.40516908 18.6523371 4.28136628 18.5283467 4.21194799 18.3602161 4.21221347 18.185L4.21121347 18.185 4.21121347 17.105C4.21121347 17.0077979 4.29001135 16.929 4.38721347 16.929 4.48441558 16.929 4.56321347 17.0077979 4.56321347 17.105L4.56321347 18.185 4.56221347 18.185C4.56258597 18.2673197 4.59568547 18.3461109 4.65421347 18.404 4.71218431 18.4615502 4.79052724 18.4938937 4.87221347 18.494L5.35821347 18.494 5.35821347 18.494zM9.07821347 10.635C9.10322206 10.869009 9.00148866 11.0985841 8.81133525 11.2372466 8.62118184 11.3759092 8.37149724 11.4025931 8.15633524 11.3072466 7.94117324 11.2119002 7.79322205 11.009009 7.76821347 10.775L7.22821347 5.81 5.31821347 10.664 5.31621347 10.669 5.31021347 10.682 5.30621347 10.692 5.30521347 10.695 5.30021347 10.705 5.29821347 10.711 5.29321347 10.721 5.29121347 10.725 5.28621347 10.735 5.28421347 10.738C5.24965797 10.8031282 5.20435463 10.861955 5.15021347 10.912L5.14921347 10.914 5.13921347 10.923C5.10418342 10.9536663 5.06596477 10.9804864 5.02521347 11.003L5.02221347 11.005 5.01021347 11.012 5.00921347 11.012 4.99721347 11.018 4.99221347 11.021 4.98521347 11.024 4.97721347 11.028 4.97021347 11.031 4.96221347 11.035 4.95521347 11.038 4.94821347 11.041 4.94221347 11.043 4.93821347 11.044 4.93321347 11.046 4.92421347 11.05 4.91921347 11.051C4.85710286 11.072954 4.79203966 11.0854273 4.72621347 11.088L4.67821347 11.088C4.60452698 11.0851905 4.53184156 11.0699773 4.46321347 11.043L4.45321347 11.039 4.45221347 11.039 4.44221347 11.035 4.43421347 11.031 4.42721347 11.028 4.42021347 11.025 4.41221347 11.021 4.40721347 11.018 4.39521347 11.012 4.38421347 11.006 4.37821347 11.003C4.34277698 10.9828254 4.30929875 10.9593906 4.27821347 10.933L4.27521347 10.931 4.25321347 10.911C4.24744938 10.9057711 4.24178176 10.9004369 4.23621347 10.895L4.22121347 10.879C4.21437301 10.8718266 4.20770445 10.8644911 4.20121347 10.857L4.19921347 10.854C4.17282285 10.8229147 4.14938809 10.7894365 4.12921347 10.754L4.12621347 10.748 4.12021347 10.738 4.12021347 10.736 4.11321347 10.724 4.11121347 10.72 4.10721347 10.712 4.10421347 10.704 4.10121347 10.698 4.09721347 10.689 4.09321347 10.68 4.09321347 10.678 4.08921347 10.669 2.17621347 5.81 1.63621347 10.775C1.59755353 11.1364704 1.27318383 11.3981599.911713465 11.3595.550243096 11.3208401.288553533 10.9964704.327213465 10.635L.963213465 4.783.963213465 4.779C.97877031 4.64103671 1.02051728 4.50731065 1.08621347 4.385 1.25139714 4.07489324 1.55593726 3.86342772 1.90421347 3.817L1.90521347 3.817C1.97212769 3.80780468 2.03974662 3.80479196 2.10721347 3.808L2.11021347 3.808C2.53976408 3.82524778 2.91826966 4.09538454 3.07421347 4.496L4.70221347 8.632 6.33021347 4.496C6.48630147 4.09506155 6.86529379 3.82485769 7.29521347 3.808L7.29721347 3.808C7.36468034 3.80481457 7.4322972 3.8078272 7.49921347 3.817L7.50021347 3.817C7.99784291 3.8829955 8.38621558 4.28003537 8.44121347 4.779L8.44121347 4.783 9.07721347 10.635 9.07821347 10.635zM2.40021347 18.65C2.41125916 18.7466498 2.3418633 18.8339543 2.24521347 18.845 2.14856363 18.8560457 2.06125916 18.7866498 2.05021347 18.69L1.90021347 17.424 1.36221347 18.67C1.3343277 18.7343775 1.270871 18.7760447 1.20071347 18.7760447 1.13055593 18.7760447 1.06709923 18.7343775 1.03921347 18.67L.502213465 17.424.351213465 18.691C.339891628 18.7876498.252363296 18.8568218.155713465 18.8455.0590636338 18.8341782-.0101083723 18.7466498.00121346504 18.65L.177213465 17.178C.190338707 17.0655005.269497822 16.9717698.378213465 16.94.395199923 16.9348514.412597184 16.9311712.430213465 16.929L.433213465 16.929C.541782858 16.9150004.64949514 16.9604534.715213465 17.048.726979438 17.0642527.737032923 17.0816788.745213465 17.1L1.20121347 18.157 1.65721347 17.1C1.70202471 16.9971821 1.80210702 16.9294221 1.91421347 16.926L1.95421347 16.926 1.96721347 16.928 1.96921347 16.928C2.06008079 16.9386304 2.14092611 16.9906815 2.18821347 17.069 2.2078328 17.102077 2.22042788 17.138841 2.22521347 17.177L2.22521347 17.178 2.40021347 18.65 2.40021347 18.65zM6.12621347 18.67C6.12621347 18.7672021 6.04741558 18.846 5.95021347 18.846 5.85301135 18.846 5.77421347 18.7672021 5.77421347 18.67L5.77421347 17.28 5.27421347 17.28C5.17701135 17.28 5.09821347 17.2012021 5.09821347 17.104 5.09821347 17.0067979 5.17701135 16.928 5.27421347 16.928L6.62621347 16.928C6.72341558 16.928 6.80221347 17.0067979 6.80221347 17.104 6.80221347 17.2012021 6.72341558 17.28 6.62621347 17.28L6.12621347 17.28 6.12621347 18.67 6.12621347 18.67zM7.83521347 18.67C7.83521347 18.767 7.63221347 18.846 7.38221347 18.846 7.13221347 18.846 6.92921347 18.767 6.92921347 18.67L6.92921347 17.104C6.92921347 17.007 7.13221347 16.928 7.38221347 16.928 7.63221347 16.928 7.83521347 17.007 7.83521347 17.104L7.83521347 18.67zM10.8322135 18.649C10.8385225 18.7424117 10.7705961 18.8244128 10.6776423 18.8355992 10.5846885 18.8467856 10.4992467 18.7832414 10.4832135 18.691L10.4212135 18.195 9.81121347 18.195C9.71401135 18.195 9.63521347 18.1162021 9.63521347 18.019 9.63521347 17.9217979 9.71401135 17.843 9.81121347 17.843L10.3782135 17.843 10.3622135 17.713 10.3602135 17.7C10.350707 17.6365646 10.3318346 17.5748921 10.3042135 17.517 10.2416781 17.3755378 10.1028502 17.2831158 9.94821347 17.28L9.94621347 17.28C9.88820219 17.2802366 9.83103682 17.2939289 9.77921347 17.32 9.63783078 17.4017138 9.54608402 17.5481341 9.53421347 17.711L9.42421347 18.689C9.40757151 18.7797082 9.32373241 18.8421882 9.23205209 18.8322058 9.14037176 18.8222234 9.07194381 18.7431642 9.07521347 18.651L9.18521347 17.673C9.20962252 17.3919375 9.37284908 17.1416568 9.62021347 17.006 9.72111592 16.9545155 9.83293878 16.9281034 9.94621347 16.929L9.94821347 16.929C10.2532135 16.929 10.4902135 17.106 10.6182135 17.36 10.6671713 17.4570726 10.6986521 17.5620084 10.7112135 17.67L10.8322135 18.649 10.8322135 18.649zM11.3722135 18.67C11.3722135 18.7674783 11.2931917 18.8465 11.1957135 18.8465 11.0982352 18.8465 11.0192135 18.7674783 11.0192135 18.67L11.0192135 17.215C11.0192135 17.205 11.0192135 17.195 11.0222135 17.185 11.0242656 17.1655508 11.0286298 17.1464157 11.0352135 17.128 11.0667998 17.043903 11.1413946 16.983462 11.2302135 16.97L11.2322135 16.97 11.2322135 16.969C11.2461357 16.9671917 11.2601824 16.9665228 11.2742135 16.967L11.2782135 16.967C11.3502135 16.97 11.4182135 17.003 11.4642135 17.062L12.4012135 18.256 12.4012135 17.104C12.4012135 17.0067979 12.4800113 16.928 12.5772135 16.928 12.6744156 16.928 12.7532149 17.0067979 12.7532149 17.104L12.7532149 18.552C12.7535522 18.6512312 12.6944733 18.741031 12.6032135 18.78L12.6012135 18.78 12.6012135 18.781C12.5963427 18.783309 12.591333 18.7853129 12.5862135 18.787L12.5842135 18.787C12.4885773 18.8204861 12.3821923 18.791905 12.3162135 18.715L12.3102135 18.709 12.3072135 18.705 11.3712135 17.511 11.3712135 18.671 11.3722135 18.67zM14.1192135 18.494C14.2164156 18.494 14.2952135 18.5727979 14.2952135 18.67 14.2952135 18.7672021 14.2164156 18.8460029 14.1192135 18.8460029L13.6012135 18.8460029C13.4169903 18.8465332 13.2401587 18.7735868 13.1098927 18.6433208 12.9796267 18.5130548 12.9066803 18.3362232 12.9072106 18.152L12.9072106 17.622C12.9072106 17.2392667 13.2174801 16.929 13.6002135 16.929L13.6002135 16.928 14.1202135 16.928C14.2174156 16.928 14.2962135 17.0067979 14.2962135 17.104 14.2962135 17.2012021 14.2174156 17.28 14.1202135 17.28L13.6002135 17.28C13.4113321 17.28 13.2582135 17.4331186 13.2582135 17.622L13.2582135 18.152C13.2582135 18.246 13.2962135 18.332 13.3592135 18.394 13.4212135 18.456 13.5072135 18.494 13.6002135 18.494L14.1202135 18.494 14.1192135 18.494zM15.1372135 17.2789982L15.1372135 17.28C15.013339 17.2793821 14.894022 17.3266789 14.8042135 17.412 14.7182485 17.4926998 14.6690983 17.6050947 14.6682135 17.723L14.6682135 18.051C14.6682135 18.171 14.7202135 18.281 14.8032135 18.361 14.9892344 18.5407049 15.2841926 18.5407049 15.4702135 18.361 15.5560258 18.2806083 15.6051728 18.1685819 15.6062135 18.051L15.6062135 17.723C15.6062135 17.603 15.5542135 17.493 15.4712135 17.413 15.3814711 17.3267084 15.2617117 17.2786612 15.1372135 17.2789982M15.1372135 16.928C15.3622135 16.928 15.5662135 17.018 15.7142135 17.159 15.8689289 17.3058618 15.9567445 17.5096809 15.9572135 17.723L15.9572135 18.051C15.9567445 18.2643191 15.8689289 18.4681382 15.7142135 18.615 15.558784 18.7632798 15.3520267 18.845696 15.1372135 18.845L15.1372135 18.8460025C14.9222413 18.8465311 14.7154278 18.763734 14.5602135 18.615 14.4054981 18.4681382 14.3176824 18.2643191 14.3172135 18.051L14.3172135 17.723C14.3172135 17.503 14.4102135 17.303 14.5602135 17.159 14.7155857 17.0106311 14.9223805 16.9281999 15.1372135 16.929L15.1372135 16.928 15.1372135 16.928z"/><path fill="#424041" d="M7.72421347,17.28 L7.72421347,18.494 L8.40421347,18.494 C8.46279347,18.4939667 8.51894119,18.4705718 8.56021347,18.429 C8.64446063,18.3453314 8.64711602,18.2099068 8.56621347,18.123 L8.55921347,18.117 C8.51835028,18.0753058 8.4625906,18.051563 8.40421347,18.051 L8.40421347,18.052 L8.16821347,18.052 C8.07101135,18.052 7.99221347,17.9732021 7.99221347,17.876 C7.99221347,17.7787979 8.07101135,17.7 8.16821347,17.7 L8.24821347,17.7 C8.29853678,17.6959114 8.34572582,17.6739135 8.38121347,17.638 C8.42065632,17.5988187 8.44295256,17.5455954 8.44321347,17.49 C8.44321793,17.4340578 8.42090134,17.380426 8.38121347,17.341 C8.34203213,17.3015571 8.28880886,17.2792609 8.23321347,17.279 L8.23321347,17.28 L7.72321347,17.28 L7.72421347,17.28 Z M7.37221346,17.876 L7.37221346,17.112 C7.37221346,17.063009 7.3920422,17.0161042 7.42721347,16.982 L7.42921347,16.979 C7.46062108,16.9489439 7.50179703,16.9311956 7.54521347,16.929 L7.55521347,16.929 L7.55521347,16.928 L8.23421347,16.928 C8.38308187,16.928 8.525824,16.9872733 8.63090205,17.0927267 C8.7359801,17.19818 8.79474514,17.3411325 8.79421347,17.49 L8.79621347,17.49 L8.79521347,17.49 C8.79521347,17.6 8.76321347,17.702 8.70821347,17.789 C8.74521347,17.812 8.77821347,17.839 8.80821347,17.869 L8.81921347,17.88 C8.97707709,18.0455887 9.02086441,18.2894167 8.93048055,18.4995864 C8.84009669,18.7097561 8.63299299,18.8456879 8.40421347,18.845 L8.40421347,18.846 L7.54821347,18.846 C7.45101135,18.846 7.37221346,18.7672021 7.37221346,18.67 L7.37221346,17.876 L7.37221346,17.876 Z"/></g></svg>
