<svg xmlns="http://www.w3.org/2000/svg" width="34" height="17"><g fill="none"><path fill="#C3242B" d="m1.344 14.75-.06.474a.387.387 0 0 0 .377.439h14.68a.389.389 0 0 0 .378-.439l-.06-.474c-.037-.37.219-.707.57-.746.353-.04.664.23.7.598l.057.462C18.1 16.095 17.544 17 16.552 17H1.45C.458 17-.1 16.095.016 15.064l.056-.462c.038-.368.348-.638.7-.598.352.039.608.376.572.746"/><path fill="#000" d="M16.33 6.289c0 .586-.213.917-.566 1.326l-.035.04.049.03c.698.415 1.185 1.041 1.22 1.921.055 1.311-1.085 2.397-2.437 2.394h-3.566a.628.628 0 0 1-.627-.628V4.628c0-.348.28-.628.626-.628l2.943.008c1.284.001 2.393.921 2.393 2.281m-1.776 4.496c.719.002 1.29-.509 1.276-1.18-.015-.687-.656-1.131-1.372-1.133h-1.445a.583.583 0 0 1-.583-.584c0-.325.262-.585.583-.585h.965c.65-.025 1.152-.41 1.183-1.01.033-.642-.534-1.125-1.226-1.125h-2.342l-.01 5.617h2.97M4.838 9.688l.016.048.018-.048c.165-.444.364-.936.576-1.472.218-.564.435-1.104.65-1.618.22-.522.428-.987.626-1.393.198-.415.362-.699.488-.855a.97.97 0 0 1 .774-.342h.148c.196 0 .35.05.465.145a.5.5 0 0 1 .185.312l.922 6.97a.56.56 0 0 1-.157.42c-.105.097-.254.145-.45.145-.194 0-.35-.045-.462-.134a.484.484 0 0 1-.216-.348c-.031-.232-.06-.49-.088-.772-.04-.282-.184-1.498-.225-1.805-.038-.315-.297-2.284-.385-3l-.008-.06-.295.604c-.1.207-.21.457-.33.748-.365.937-.717 1.878-1.055 2.825-.052.144-.152.435-.243.702-.092.266-.176.506-.2.553a.81.81 0 0 1-.735.438.806.806 0 0 1-.74-.438 9.425 9.425 0 0 1-.2-.553c-.092-.267-.19-.558-.245-.702 0 0-.57-1.59-.698-1.904a27.21 27.21 0 0 0-.358-.921c-.12-.291-.227-.54-.325-.748l-.297-.604-.007.06c-.09.716-.346 2.685-.386 3-.04.307-.184 1.523-.223 1.805-.03.282-.06.54-.091.772a.487.487 0 0 1-.214.348c-.116.089-.27.134-.465.134s-.343-.048-.447-.144a.572.572 0 0 1-.16-.422l.922-6.969a.516.516 0 0 1 .188-.312.704.704 0 0 1 .463-.145h.15c.32 0 .578.115.772.342.127.156.29.44.488.855.199.406.406.871.624 1.393.217.514.435 1.054.654 1.618.21.536.41 1.028.576 1.472"/><path fill="#C3242B" d="M3.67 0h10.66c1.005 0 1.505.822 1.622 1.905l.046.347c.036.372-.216.705-.55.744-.337.04-.64-.23-.674-.602l-.042-.332c-.045-.412-.205-.73-.59-.73H3.86c-.384 0-.544.318-.59.73l-.04.332c-.035.372-.336.642-.674.602-.337-.04-.587-.372-.55-.744l.045-.347C2.168.822 2.667 0 3.67 0"/><path fill="#000" d="m22.97 7.713-.24.912c-.083.322-.167.63-.25.925-.081.295-.158.553-.232.775-.047.158-.108.31-.184.457-.086.146-.24.218-.456.218-.06 0-.14-.012-.238-.036a.399.399 0 0 1-.244-.197 2.633 2.633 0 0 1-.184-.48c-.073-.238-.15-.511-.232-.822a47.594 47.594 0 0 1-.464-1.95c-.056-.253-.11-.506-.164-.76a8.337 8.337 0 0 1-.081-.43v-.03c0-.088.034-.16.105-.214a.415.415 0 0 1 .26-.081c.1 0 .178.02.239.06.06.037.102.106.13.204 0 .01.016.086.044.225l.115.534.155.73c.115.542.237 1.082.367 1.62.062.257.12.48.176.665.13-.43.256-.863.375-1.297.065-.241.127-.48.188-.721l.167-.67c.052-.208.096-.391.134-.55.038-.161.068-.28.09-.358a.42.42 0 0 1 .155-.232.458.458 0 0 1 .278-.086.47.47 0 0 1 .294.09.408.408 0 0 1 .146.228c.06.253.126.536.196.85.14.633.293 1.263.456 1.891.083.307.16.58.238.817.054-.186.113-.408.176-.666l.19-.8c.066-.272.128-.544.188-.813.06-.268.114-.51.164-.725l.162-.732c.027-.098.07-.167.13-.205A.43.43 0 0 1 25.558 6c.102 0 .19.027.26.081.069.05.11.13.107.214v.03a5.404 5.404 0 0 1-.087.43c-.044.21-.1.464-.166.76-.066.299-.14.618-.221.962-.08.343-.16.67-.24.98-.08.31-.154.583-.23.818a2.577 2.577 0 0 1-.182.476.424.424 0 0 1-.25.206.952.952 0 0 1-.24.043.93.93 0 0 1-.237-.04.533.533 0 0 1-.146-.072.34.34 0 0 1-.114-.137 3.356 3.356 0 0 1-.176-.487 36.55 36.55 0 0 1-.452-1.671c-.076-.313-.148-.607-.212-.88m6.078 1.178c-.105-.31-.214-.618-.327-.925a16.185 16.185 0 0 0-.404-1.002 4.615 4.615 0 0 1-.052-.134.669.669 0 0 0-.053.128 3.15 3.15 0 0 1-.086.204 14.07 14.07 0 0 0-.315.804c-.1.28-.208.59-.322.925h1.56-.001Zm-1.811.675a21.26 21.26 0 0 0-.216.689c-.05.176-.11.35-.176.52-.06.15-.18.225-.36.225-.124 0-.215-.03-.273-.089a.32.32 0 0 1-.085-.23.3.3 0 0 1 .016-.1l.103-.317c.056-.18.13-.406.224-.675l.305-.883c.215-.615.448-1.224.698-1.826.114-.271.22-.49.318-.655a.36.36 0 0 1 .175-.179.792.792 0 0 1 .299-.046c.12 0 .22.02.305.054.085.037.143.1.176.187.077.154.168.363.274.623.237.586.464 1.177.68 1.771.115.315.22.609.315.88l.244.694c.068.192.11.316.127.371a.34.34 0 0 1 .016.102.296.296 0 0 1-.098.23c-.065.058-.16.088-.285.088-.093 0-.162-.02-.21-.06a.395.395 0 0 1-.11-.165 10.97 10.97 0 0 1-.19-.52c-.073-.212-.152-.44-.233-.69h-2.04v.001Zm4.577-.52a1.038 1.038 0 0 1-.155-.193 4.936 4.936 0 0 1-.25-.376c-.09-.147-.18-.304-.27-.469-.171-.318-.333-.64-.487-.968l-.175-.376a1.426 1.426 0 0 1-.09-.222.353.353 0 0 1-.02-.058.366.366 0 0 1-.005-.058.3.3 0 0 1 .1-.232.4.4 0 0 1 .283-.094c.109 0 .186.026.233.077a.56.56 0 0 1 .1.156c.01.027.039.082.079.17l.15.326c.06.128.129.271.204.426.078.155.154.307.234.458.078.15.155.292.228.43.073.136.143.248.208.337.104-.15.215-.338.335-.566.272-.52.527-1.046.767-1.581a.59.59 0 0 1 .1-.156c.047-.051.125-.077.234-.077a.4.4 0 0 1 .282.094.3.3 0 0 1 .1.232c0 .02 0 .039-.003.058a.497.497 0 0 1-.02.058l-.093.225c-.204.458-.424.908-.66 1.35a14.9 14.9 0 0 1-.27.471c-.09.15-.174.277-.25.38a1.243 1.243 0 0 1-.155.178v1.605a.332.332 0 0 1-.102.252.372.372 0 0 1-.265.097.372.372 0 0 1-.265-.097.332.332 0 0 1-.102-.252V9.046"/></g></svg>
